<?xml version="1.0" standalone="no"?>
<!DOCTYPE svg PUBLIC "-//W3C//DTD SVG 20010904//EN"
 "http://www.w3.org/TR/2001/REC-SVG-20010904/DTD/svg10.dtd">
<svg version="1.0" xmlns="http://www.w3.org/2000/svg"
 width="250.000000pt" height="250.000000pt" viewBox="0 0 250.000000 250.000000"
 preserveAspectRatio="xMidYMid meet">
<metadata>
Created by potrace 1.14, written by Peter Selinger 2001-2017
</metadata>
<g transform="translate(0.000000,250.000000) scale(0.100000,-0.100000)"
fill="#000000" stroke="none">
<path d="M1140 2209 c-141 -9 -264 -55 -413 -153 -309 -204 -478 -577 -426
-941 18 -127 66 -271 114 -340 11 -16 27 -46 36 -65 24 -51 133 -165 220 -230
64 -48 114 -76 251 -142 15 -7 74 -22 133 -34 11 -2 34 -7 50 -11 43 -10 232
-10 285 0 25 5 54 10 65 12 49 9 79 17 118 31 61 23 151 67 155 76 2 4 10 8
17 8 37 0 295 232 295 266 0 7 6 17 13 21 12 7 50 81 102 198 79 176 78 487
-1 681 -62 152 -120 241 -229 350 -116 116 -228 185 -390 239 -108 37 -220 46
-395 34z"/>
</g>
</svg>
